<svg width="82" height="81" viewBox="0 0 82 81" fill="none" xmlns="http://www.w3.org/2000/svg">
<path d="M37.3765 58.3873C44.2098 64.3948 52.5808 68.5122 56.5441 67.196C63.7191 64.5635 64.9148 50.3208 64.9148 40.4658C64.9148 37.7321 64.9148 34.6274 64.539 31.5562" stroke="#8E8E8E" stroke-width="3" stroke-linecap="round" stroke-linejoin="round"/>
<path d="M61.9415 19.7776C61.5042 18.4655 60.7997 17.2553 59.8713 16.2222C58.943 15.189 57.8104 14.3546 56.5433 13.77C52.3408 12.2175 43.4233 17.1447 36.0433 23.591H30.5765C26.9519 23.591 23.4757 25.0135 20.9127 27.5452C18.3497 30.077 16.9099 33.5106 16.9099 37.091V43.841C16.9088 46.4436 17.6693 48.9913 19.0999 51.1768C20.5305 53.3624 22.57 55.0927 24.9731 56.1598" stroke="#8E8E8E" stroke-width="3" stroke-linecap="round" stroke-linejoin="round"/>
<path d="M75.1666 6.75L6.83331 74.25" stroke="#8E8E8E" stroke-width="3" stroke-linecap="round" stroke-linejoin="round"/>
</svg>
