<svg width="82" height="81" viewBox="0 0 82 81" fill="none" xmlns="http://www.w3.org/2000/svg">
<path d="M42.8766 13.77C38.6741 12.2175 29.7566 17.1447 22.3766 23.591H16.9098C13.2852 23.591 9.80902 25.0135 7.24603 27.5452C4.68303 30.077 3.24316 33.5106 3.24316 37.091V43.841C3.24316 47.4214 4.68303 50.8554 7.24603 53.3871C9.80902 55.9189 13.2852 57.341 16.9098 57.341H22.3766C29.5858 63.8885 38.5033 68.7149 42.8766 67.1961C50.0516 64.5636 51.2473 50.321 51.2473 40.466C51.2473 30.611 50.0516 16.4025 42.8766 13.77Z" stroke="#FE7271" stroke-width="3" stroke-linecap="round" stroke-linejoin="round"/>
<path d="M70.5889 21.2623C75.711 26.3252 78.5883 33.1902 78.5883 40.348C78.5883 47.5058 75.711 54.3707 70.5889 59.4337" stroke="#FE7271" stroke-width="3" stroke-linecap="round" stroke-linejoin="round"/>
<path d="M63.3418 52.4134C66.5444 49.2489 68.3436 44.9573 68.3436 40.4827C68.3436 36.0081 66.5444 31.7169 63.3418 28.5524" stroke="#FE7271" stroke-width="3" stroke-linecap="round" stroke-linejoin="round"/>
</svg>
